<svg width="34" height="32" viewBox="0 0 34 32" fill="none" xmlns="http://www.w3.org/2000/svg">
<path d="M17 17.3501L12.7433 21.6085C13.5675 23.0062 13.8536 24.6566 13.5479 26.2502C13.2423 27.8438 12.366 29.2712 11.0832 30.2649C9.80039 31.2586 8.19922 31.7503 6.57981 31.6479C4.9604 31.5455 3.43394 30.8559 2.28655 29.7086C1.13917 28.5612 0.449643 27.0347 0.347224 25.4153C0.244806 23.7959 0.736527 22.1947 1.73021 20.9119C2.7239 19.6291 4.15133 18.7528 5.74494 18.4472C7.33854 18.1415 8.9889 18.4276 10.3867 19.2518L14.6433 14.9951L4.60833 4.96012C4.29866 4.65057 4.05301 4.28305 3.88541 3.87854C3.71781 3.47403 3.63154 3.04047 3.63154 2.60262C3.63154 2.16476 3.71781 1.7312 3.88541 1.32669C4.05301 0.922187 4.29866 0.554663 4.60833 0.245117L17 12.6368L29.3917 0.245117C29.7013 0.554663 29.947 0.922187 30.1146 1.32669C30.2822 1.7312 30.3685 2.16476 30.3685 2.60262C30.3685 3.04047 30.2822 3.47403 30.1146 3.87854C29.947 4.28305 29.7013 4.65057 29.3917 4.96012L19.3583 14.9935L23.6133 19.2501C25.0111 18.426 26.6615 18.1399 28.2551 18.4455C29.8487 18.7511 31.2761 19.6275 32.2698 20.9103C33.2635 22.1931 33.7552 23.7942 33.6528 25.4136C33.5504 27.033 32.8608 28.5595 31.7134 29.7069C30.5661 30.8543 29.0396 31.5438 27.4202 31.6462C25.8008 31.7486 24.1996 31.2569 22.9168 30.2632C21.634 29.2695 20.7577 27.8421 20.4521 26.2485C20.1464 24.6549 20.4325 23.0045 21.2567 21.6068L17 17.3501ZM7 28.3285C7.88405 28.3285 8.7319 27.9773 9.35702 27.3521C9.98214 26.727 10.3333 25.8792 10.3333 24.9951C10.3333 24.1111 9.98214 23.2632 9.35702 22.6381C8.7319 22.013 7.88405 21.6618 7 21.6618C6.11594 21.6618 5.2681 22.013 4.64298 22.6381C4.01785 23.2632 3.66667 24.1111 3.66667 24.9951C3.66667 25.8792 4.01785 26.727 4.64298 27.3521C5.2681 27.9773 6.11594 28.3285 7 28.3285ZM27 28.3285C27.8841 28.3285 28.7319 27.9773 29.357 27.3521C29.9821 26.727 30.3333 25.8792 30.3333 24.9951C30.3333 24.1111 29.9821 23.2632 29.357 22.6381C28.7319 22.013 27.8841 21.6618 27 21.6618C26.1159 21.6618 25.2681 22.013 24.643 22.6381C24.0179 23.2632 23.6667 24.1111 23.6667 24.9951C23.6667 25.8792 24.0179 26.727 24.643 27.3521C25.2681 27.9773 26.1159 28.3285 27 28.3285Z" fill="#009FE3"/>
</svg>
